<svg xmlns="http://www.w3.org/2000/svg" fill="none" viewBox="0 0 1490 696.9785407725323" style="max-height: 500px" width="1490" height="696.9785407725323">
<path stroke-width="3" stroke="black" fill="#F2F1EE" d="M477.5 240.5H441.5V232.618C441.5 212.667 457.507 196.312 477.5 195.529V240.5Z"/>
<path stroke-width="3" stroke="black" fill="#F2F1EE" d="M526.5 240.5H490.5V195.529C510.498 196.312 526.5 212.666 526.5 232.618V240.5Z"/>
<path stroke-width="3" stroke="black" fill="#F2F1EE" d="M441.5 252.5H477.5V288.5H441.5V252.5Z"/>
<path stroke-width="3" stroke="black" fill="#F2F1EE" d="M490.5 252.5H526.5V288.5H490.5V252.5Z"/>
<mask height="450" width="388" y="177" x="228" maskUnits="userSpaceOnUse" style="mask-type:luminance" id="mask0_1_96">
<path fill="white" d="M228.27 177.609H615.093V626.573H228.27V177.609Z"/>
</mask>
<g mask="url(#mask0_1_96)">
<path stroke-width="3" stroke="black" fill="#C2A776" d="M486.562 507.558H439.048C416.786 507.558 401.057 501.296 392.652 488.487L486.562 507.558ZM486.562 507.558H612.124V625.608H390.632C340.215 625.608 301.156 608.816 273.09 575.532C244.993 542.213 230.841 495.81 230.841 436.33V323.035L381.115 182.377C380.471 190.029 380.213 198.572 380.213 207.882V419.226C380.213 435.935 381.263 450.09 383.331 461.627M486.562 507.558L383.331 461.627M383.331 461.627C385.396 473.145 388.492 482.151 392.652 488.486L383.331 461.627Z"/>
</g>
<mask height="291" width="548" y="0" x="0" maskUnits="userSpaceOnUse" style="mask-type:luminance" id="mask1_1_96">
<path fill="white" d="M0 0H547.937V290.432H0V0Z"/>
</mask>
<g mask="url(#mask1_1_96)">
<path stroke-width="3" stroke="black" fill="#C2A776" d="M388.151 147.624L388.149 147.626L237.667 288.481H3.96546L188.865 115.409L189.34 114.964V114.313V1.49998H255.7V128.154V129.654H257.2H269.761H271.261V128.154V38.3294L310.398 1.49998H544.084L541.785 3.63291L541.779 3.63823L454.224 85.7374L454.223 85.7385L414.909 122.681L414.904 122.685L388.151 147.624Z"/>
</g>
<mask height="291" width="444" y="0" x="467" maskUnits="userSpaceOnUse" style="mask-type:luminance" id="mask2_1_96">
<path fill="white" d="M467.348 0H910.583V290.432H467.348V0Z"/>
</mask>
<g mask="url(#mask2_1_96)">
<path stroke-width="3" stroke="black" fill="#C2A776" d="M625.156 25.121L625.16 25.1247L906.534 288.481H672.832L508.157 134.344L508.153 134.341L495.775 122.686L495.769 122.681L470.187 98.8444L567.314 8.01063L567.322 8.00277L574.17 1.49998H600.101L625.156 25.121Z"/>
</g>
<path stroke-width="3" stroke="black" fill="#F2F1EE" d="M380.227 252.268L230.689 392.536V322.83L381.137 181.802C380.488 189.573 380.227 198.043 380.227 207.421V252.268Z"/>
<mask height="138" width="162" y="0" x="467" maskUnits="userSpaceOnUse" style="mask-type:luminance" id="mask3_1_96">
<path stroke="white" fill="white" d="M467.848 0.5H628.025V136.815H467.848V0.5Z"/>
</mask>
<g mask="url(#mask3_1_96)">
<path stroke-width="3" stroke="black" fill="#F2F1EE" d="M623.996 24.0276L585.832 59.88L585.829 59.883L517.028 124.141L517.028 124.141L507.133 133.38L495.775 122.686L495.769 122.681L470.187 98.8444L567.314 8.01063L567.322 8.00277L574.17 1.49998H600.101L623.996 24.0276Z"/>
</g>
<path stroke-width="6.25485" stroke="black" d="M582 373.86V312.14H605.442C609.716 312.14 613.428 312.953 616.589 314.579C619.761 316.183 622.236 318.464 623.99 321.399C625.745 324.347 626.622 327.869 626.622 331.968C626.622 336.982 625.329 341.114 622.742 344.366C620.177 347.629 616.634 349.82 612.134 350.938L627.59 373.86H618.265L603.248 351.728H589.716V373.86H582ZM589.716 344.332H604.564C609.075 344.332 612.562 343.26 615.025 341.114C617.489 338.969 618.715 335.92 618.715 331.968C618.715 328.039 617.489 324.99 615.025 322.822C612.562 320.643 609.075 319.548 604.564 319.548H589.716V344.332ZM675.8 373.86V312.14H713.134V319.378H683.517V338.856H710.918V346.004H683.517V366.633H714.101V373.86H675.8ZM755.282 373.86L780.568 312.14H787.767L813.076 373.86H804.898L799.117 359.847H769.151L763.538 373.86H755.282ZM772.132 352.62H796.192L784.167 322.992L772.132 352.62ZM857.507 373.86V312.14H865.223V366.452H895.099V373.86H857.507ZM996.537 373.86V312.14H1033.88V319.378H1004.26V338.856H1031.67V346.004H1004.26V366.633H1034.84V373.86H996.537ZM1103.95 375C1099.03 375 1094.77 374.164 1091.17 372.505C1087.56 370.822 1084.78 368.474 1082.82 365.447C1080.87 362.421 1079.85 358.898 1079.8 354.901H1087.53C1087.64 358.842 1089.2 361.947 1092.22 364.217C1095.23 366.475 1099.15 367.593 1103.95 367.593C1108.28 367.593 1111.72 366.746 1114.26 365.052C1116.82 363.347 1118.1 360.965 1118.1 357.905C1118.1 355.025 1116.87 352.711 1114.41 350.983C1111.96 349.244 1107.94 347.731 1102.36 346.433C1094.81 344.615 1089.28 342.277 1085.76 339.443C1082.26 336.586 1080.51 332.77 1080.51 328.005C1080.51 322.788 1082.49 318.644 1086.42 315.584C1090.37 312.536 1095.71 311 1102.46 311C1109.37 311 1114.83 312.739 1118.83 316.217C1122.85 319.672 1124.88 324.403 1124.94 330.399H1117.31C1117.26 326.695 1115.88 323.782 1113.22 321.637C1110.55 319.491 1106.97 318.407 1102.46 318.407C1098.07 318.407 1094.62 319.277 1092.13 321.016C1089.64 322.732 1088.4 325.069 1088.4 328.005C1088.4 330.534 1089.56 332.668 1091.88 334.407C1094.2 336.135 1098.34 337.738 1104.31 339.206C1112.15 341.137 1117.73 343.565 1121.06 346.478C1124.41 349.391 1126.07 353.106 1126.07 357.634C1126.07 362.986 1124.07 367.22 1120.06 370.325C1116.05 373.442 1110.69 375 1103.95 375ZM1189.14 373.86V319.548H1168.31V312.14H1217.59V319.548H1196.86V373.86H1189.14ZM1256.15 373.86L1281.44 312.14H1288.65L1313.94 373.86H1305.78L1299.99 359.847H1270.03L1264.41 373.86H1256.15ZM1273.01 352.62H1297.07L1285.04 322.992L1273.01 352.62ZM1373.22 373.86V319.548H1352.39V312.14H1401.67V319.548H1380.94V373.86H1373.22ZM1447.7 373.86V312.14H1485.03V319.378H1455.42V338.856H1482.83V346.004H1455.42V366.633H1486V373.86H1447.7Z"/>
<path fill="white" d="M581.906 373.434V311.949H605.357C609.645 311.949 613.369 312.759 616.52 314.38C619.693 315.978 622.158 318.239 623.902 321.176C625.669 324.091 626.558 327.602 626.558 331.709C626.558 336.694 625.263 340.801 622.687 344.042C620.098 347.283 616.565 349.466 612.064 350.569L627.503 373.434H618.185L603.152 351.379H589.648V373.434H581.906ZM589.648 343.997H604.502C609.003 343.997 612.48 342.939 614.945 340.801C617.398 338.674 618.636 335.647 618.636 331.709C618.636 327.782 617.398 324.732 614.945 322.572C612.48 320.411 609.003 319.331 604.502 319.331H589.648V343.997Z"/>
<path fill="white" d="M675.739 373.434V311.949H713.098V319.151H683.481V338.551H710.893V345.662H683.481V366.233H714.043V373.434H675.739Z"/>
<path fill="white" d="M755.248 373.434L780.544 311.949H787.746L813.087 373.434H804.895L799.089 359.481H769.156L763.53 373.434H755.248ZM772.127 352.279H796.208L784.145 322.752L772.127 352.279Z"/>
<path fill="white" d="M857.519 373.434V311.949H865.26V366.052H895.148V373.434H857.519Z"/>
<path fill="white" d="M996.609 373.434V311.949H1033.97V319.151H1004.35V338.551H1031.76V345.662H1004.35V366.233H1034.91V373.434H996.609Z"/>
<path fill="white" d="M1104.07 374.56C1099.14 374.56 1094.89 373.727 1091.29 372.084C1087.69 370.407 1084.9 368.067 1082.91 365.062C1080.96 362.035 1079.96 358.524 1079.9 354.53H1087.64C1087.75 358.468 1089.32 361.551 1092.32 363.802C1095.35 366.052 1099.27 367.178 1104.07 367.178C1108.39 367.178 1111.82 366.345 1114.38 364.657C1116.92 362.947 1118.2 360.584 1118.2 357.545C1118.2 354.665 1116.97 352.369 1114.51 350.659C1112.05 348.926 1108.04 347.407 1102.49 346.113C1094.93 344.29 1089.4 341.96 1085.89 339.136C1082.37 336.289 1080.62 332.497 1080.62 327.748C1080.62 322.527 1082.58 318.408 1086.52 315.37C1090.48 312.309 1095.83 310.779 1102.58 310.779C1109.48 310.779 1114.93 312.523 1118.92 316C1122.94 319.455 1124.98 324.17 1125.05 330.134H1117.44C1117.37 326.443 1116.01 323.539 1113.34 321.401C1110.66 319.241 1107.09 318.161 1102.58 318.161C1098.17 318.161 1094.72 319.038 1092.23 320.771C1089.73 322.482 1088.5 324.811 1088.5 327.748C1088.5 330.269 1089.64 332.407 1091.96 334.14C1094.3 335.85 1098.46 337.448 1104.43 338.911C1112.26 340.835 1117.84 343.254 1121.17 346.158C1124.53 349.072 1126.22 352.774 1126.22 357.275C1126.22 362.587 1124.2 366.806 1120.18 369.923C1116.16 373.018 1110.79 374.56 1104.07 374.56Z"/>
<path fill="white" d="M1189.29 373.434V319.331H1168.45V311.949H1217.74V319.331H1197.03V373.434H1189.29Z"/>
<path fill="white" d="M1256.32 373.434L1281.61 311.949H1288.81L1314.16 373.434H1305.96L1300.16 359.481H1270.23L1264.6 373.434H1256.32ZM1273.2 352.279H1297.28L1285.21 322.752L1273.2 352.279Z"/>
<path fill="white" d="M1373.44 373.434V319.331H1352.6V311.949H1401.89V319.331H1381.18V373.434H1373.44Z"/>
<path fill="white" d="M1447.94 373.434V311.949H1485.3V319.151H1455.68V338.551H1483.09V345.662H1455.68V366.233H1486.24V373.434H1447.94Z"/>
<path stroke-width="11.7908" stroke="black" d="M790.613 683.008L777.556 519.267H775.928L719.458 681.377H682.003L625.523 519.267H623.817L610.838 683.008H548L572.73 406.771H639.565L700.686 566.107L761.896 406.771H828.732L853.45 683.008H790.613ZM858.135 661.751C842.088 644.211 834.059 622.71 834.059 597.26C834.059 571.798 842.088 550.276 858.135 532.669C874.182 515.018 894.582 506.187 919.344 506.187C942.025 506.187 960.742 513.321 975.482 527.599V511.257H1034.65V683.008H976.135V663.559H975.482C960.742 679.846 942.025 688 919.344 688C894.582 688 874.182 679.247 858.135 661.751ZM908.403 568.148C900.739 575.726 896.896 585.456 896.896 597.338C896.896 609.164 900.573 618.805 907.915 626.271C915.313 633.738 925.026 637.477 937.053 637.477C948.637 637.477 958.161 633.693 965.614 626.116C973.068 618.483 976.789 608.864 976.789 597.26C976.789 585.433 972.957 575.726 965.282 568.148C957.619 560.571 948.205 556.788 937.053 556.788C925.679 556.788 916.133 560.571 908.403 568.148ZM1238.18 511.257L1156.66 593.255L1246.19 683.008H1169.96L1101.5 614.345V683.008H1042.33V395H1101.5V571.177L1161.31 511.257H1238.18ZM1241.99 662.572C1222.96 645.62 1213.43 623.875 1213.43 597.338C1213.43 570.745 1223.33 548.911 1243.13 531.859C1262.99 514.741 1287.53 506.187 1316.75 506.187C1345.46 506.187 1369.67 514.796 1389.38 532.014C1409.12 549.188 1419 570.955 1419 597.338C1419 623.664 1409.37 645.354 1390.11 662.405C1370.85 679.468 1346.39 688 1316.75 688C1286 688 1261.09 679.524 1241.99 662.572ZM1287.78 568.148C1280.1 575.726 1276.27 585.456 1276.27 597.338C1276.27 609.164 1279.94 618.805 1287.29 626.271C1294.69 633.738 1304.4 637.477 1316.42 637.477C1328.01 637.477 1337.52 633.693 1344.98 626.116C1352.43 618.483 1356.16 608.864 1356.16 597.26C1356.16 585.433 1352.32 575.726 1344.66 568.148C1336.98 560.571 1327.57 556.788 1316.42 556.788C1305.04 556.788 1295.5 560.571 1287.78 568.148Z"/>
<path fill="white" d="M790.326 682.993L777.299 519.502H775.616L719.125 681.31H681.686L625.15 519.502H623.511L610.441 682.993H547.614L572.337 407.185H639.196L700.383 566.29L761.571 407.185H828.429L853.197 682.993H790.326Z"/>
<path fill="white" d="M857.848 661.77C841.809 644.258 833.789 622.803 833.789 597.393C833.789 571.994 841.809 550.494 857.848 532.882C873.887 515.282 894.279 506.476 919.035 506.476C941.742 506.476 960.473 513.609 975.216 527.876V511.482H1034.37V682.993H975.88V663.587H975.216C960.473 679.87 941.742 688 919.035 688C894.279 688 873.887 679.261 857.848 661.77ZM908.136 568.328C900.448 575.893 896.616 585.585 896.616 597.393C896.616 609.212 900.293 618.86 907.648 626.325C915.003 633.802 924.706 637.535 936.758 637.535C948.333 637.535 957.859 633.758 965.335 626.192C972.801 618.605 976.545 609.001 976.545 597.393C976.545 585.585 972.69 575.893 964.981 568.328C957.294 560.74 947.89 556.941 936.758 556.941C925.382 556.941 915.845 560.74 908.136 568.328Z"/>
<path fill="white" d="M1237.98 511.482L1156.36 593.405L1246 682.993H1169.75L1101.2 614.451V682.993H1042.05V395.443H1101.2V571.341L1161.06 511.482H1237.98Z"/>
<path fill="white" d="M1241.8 662.612C1222.75 645.665 1213.23 623.922 1213.23 597.393C1213.23 570.875 1223.13 549.088 1242.96 532.041C1262.8 515.005 1287.32 506.476 1316.5 506.476C1345.27 506.476 1369.51 515.06 1389.21 532.218C1408.94 549.387 1418.81 571.119 1418.81 597.437C1418.81 623.733 1409.16 645.399 1389.88 662.435C1370.61 679.482 1346.16 688 1316.5 688C1285.76 688 1260.86 679.537 1241.8 662.612ZM1287.57 568.328C1279.89 575.893 1276.05 585.585 1276.05 597.393C1276.05 609.212 1279.73 618.86 1287.09 626.325C1294.44 633.802 1304.14 637.535 1316.19 637.535C1327.77 637.535 1337.3 633.758 1344.77 626.192C1352.24 618.605 1355.98 609.001 1355.98 597.393C1355.98 585.585 1352.13 575.893 1344.42 568.328C1336.73 560.74 1327.33 556.941 1316.19 556.941C1304.82 556.941 1295.28 560.74 1287.57 568.328Z"/>
</svg>